<svg width="25" height="25" viewBox="0 0 25 25" fill="none" xmlns="http://www.w3.org/2000/svg">
<path d="M2.87469 7.11485C2.71152 6.73413 2.27061 6.55776 1.88989 6.72093C1.50917 6.8841 1.3328 7.32501 1.49597 7.70573L2.87469 7.11485ZM9.22678 14.148C9.45269 13.8009 9.35437 13.3363 9.00718 13.1104C8.65999 12.8845 8.19541 12.9828 7.9695 13.33L9.22678 14.148ZM6.55669 15.5013C6.33078 15.8484 6.4291 16.313 6.77629 16.5389C7.12348 16.7648 7.58806 16.6665 7.81397 16.3193L6.55669 15.5013ZM22.8747 7.70573C23.0378 7.32501 22.8615 6.8841 22.4807 6.72093C22.1 6.55776 21.6591 6.73413 21.4959 7.11485L22.8747 7.70573ZM20.155 13.5695C20.4479 13.8624 20.9227 13.8624 21.2156 13.5695C21.5085 13.2766 21.5085 12.8017 21.2156 12.5088L20.155 13.5695ZM11.4353 16.9103C11.4353 17.3245 11.7711 17.6603 12.1853 17.6603C12.5995 17.6603 12.9353 17.3245 12.9353 16.9103H11.4353ZM16.5567 16.3193C16.7826 16.6665 17.2472 16.7648 17.5943 16.5389C17.9415 16.313 18.0398 15.8484 17.8139 15.5013L16.5567 16.3193ZM5.71566 12.0695C6.00855 11.7766 6.00855 11.3017 5.71566 11.0088C5.42277 10.7159 4.94789 10.7159 4.655 11.0088L5.71566 12.0695ZM3.155 12.5088C2.86211 12.8017 2.86211 13.2766 3.155 13.5695C3.44789 13.8624 3.92277 13.8624 4.21566 13.5695L3.155 12.5088ZM12.1853 13.6603C8.96144 13.6603 6.64666 12.0549 5.10993 10.4C4.34178 9.57272 3.77858 8.74313 3.40792 8.12043C3.22302 7.80979 3.0872 7.55261 2.99873 7.37566C2.95452 7.28725 2.92222 7.21904 2.9016 7.1744C2.8913 7.15209 2.88392 7.13569 2.87944 7.12562C2.8772 7.12059 2.87548 7.11666 2.87469 7.11485C2.87467 7.11481 2.87472 7.11493 2.87469 7.11485C2.87479 7.11508 2.87469 7.11485 2.18533 7.41029C1.49597 7.70573 1.49582 7.70539 1.49597 7.70573C1.49603 7.70588 1.49647 7.70689 1.4966 7.70719C1.49685 7.70778 1.49716 7.70849 1.49751 7.70929C1.4982 7.71091 1.49909 7.71295 1.50016 7.71541C1.50231 7.72032 1.50521 7.72691 1.50886 7.73512C1.51616 7.75154 1.52648 7.77444 1.53986 7.8034C1.5666 7.86131 1.60559 7.94349 1.65709 8.04648C1.76002 8.25235 1.91327 8.54204 2.11899 8.88765C2.52958 9.57745 3.15388 10.4979 4.01073 11.4206C5.724 13.2657 8.40922 15.1603 12.1853 15.1603V13.6603ZM15.4978 13.0411C14.5274 13.4231 13.427 13.6603 12.1853 13.6603V15.1603C13.6235 15.1603 14.9099 14.8845 16.0472 14.4369L15.4978 13.0411ZM7.9695 13.33L6.55669 15.5013L7.81397 16.3193L9.22678 14.148L7.9695 13.33ZM22.1853 7.41029C21.4959 7.11485 21.4958 7.11499 21.4959 7.11485C21.496 7.11469 21.4964 7.11378 21.4964 7.11389C21.4963 7.11409 21.496 7.11481 21.4954 7.11605C21.4943 7.11852 21.4923 7.12304 21.4894 7.12953C21.4836 7.14252 21.4742 7.16338 21.4611 7.19154C21.4348 7.24786 21.3939 7.33324 21.3379 7.44296C21.2259 7.66256 21.0543 7.9786 20.8207 8.35349C20.3522 9.10545 19.6416 10.0823 18.672 10.9923L19.6986 12.086C20.7876 11.0638 21.577 9.97616 22.0938 9.14675C22.3529 8.73097 22.5453 8.37709 22.6742 8.12444C22.7386 7.99804 22.7873 7.89672 22.8206 7.82536C22.8372 7.78968 22.85 7.76147 22.859 7.74133C22.8635 7.73126 22.8671 7.72321 22.8697 7.71725C22.871 7.71427 22.872 7.71182 22.8729 7.70989C22.8733 7.70893 22.8736 7.7081 22.8739 7.70741C22.8741 7.70706 22.8746 7.70601 22.8747 7.70573C22.8747 7.7058 22.8748 7.70559 22.8747 7.70573C22.8748 7.70556 22.8747 7.70573 22.1853 7.41029ZM18.672 10.9923C17.813 11.7985 16.7592 12.5446 15.4978 13.0411L16.0472 14.4369C17.5208 13.8569 18.7319 12.9933 19.6986 12.086L18.672 10.9923ZM18.655 12.0695L20.155 13.5695L21.2156 12.5088L19.7156 11.0088L18.655 12.0695ZM11.4353 14.4103V16.9103H12.9353V14.4103H11.4353ZM15.1439 14.148L16.5567 16.3193L17.8139 15.5013L16.4011 13.33L15.1439 14.148ZM4.655 11.0088L3.155 12.5088L4.21566 13.5695L5.71566 12.0695L4.655 11.0088Z" fill="black"/>
</svg>
