<svg width="25" height="25" viewBox="0 0 25 25" fill="none" xmlns="http://www.w3.org/2000/svg">
<path d="M9.18533 4.8699C10.0969 4.57996 11.0957 4.41028 12.1853 4.41028C16.3672 4.41028 19.2133 6.90984 20.9104 9.11461C21.7603 10.2188 22.1853 10.7709 22.1853 12.4103C22.1853 14.0497 21.7603 14.6018 20.9104 15.706C19.2133 17.9107 16.3672 20.4103 12.1853 20.4103C8.00344 20.4103 5.15729 17.9107 3.46022 15.706C2.61029 14.6018 2.18533 14.0497 2.18533 12.4103C2.18533 10.7709 2.61029 10.2188 3.46022 9.11461C3.94145 8.48942 4.51506 7.84053 5.18533 7.23165" stroke="black" stroke-width="1.5" stroke-linecap="round"/>
<path d="M15.1853 12.4103C15.1853 14.0672 13.8422 15.4103 12.1853 15.4103C10.5284 15.4103 9.18533 14.0672 9.18533 12.4103C9.18533 10.7534 10.5284 9.41028 12.1853 9.41028C13.8422 9.41028 15.1853 10.7534 15.1853 12.4103Z" stroke="black" stroke-width="1.5"/>
</svg>
