<svg width="266" height="104" viewBox="0 0 266 104" fill="none" xmlns="http://www.w3.org/2000/svg">
<mask id="path-1-inside-1_1_23" fill="white">
<path d="M100 51C100 64.2608 94.7322 76.9785 85.3553 86.3553C75.9785 95.7322 63.2608 101 50 101C36.7392 101 24.0215 95.7322 14.6447 86.3553C5.26785 76.9785 2.00233e-06 64.2608 0 51L50 51H100Z"/>
</mask>
<path d="M100 51C100 64.2608 94.7322 76.9785 85.3553 86.3553C75.9785 95.7322 63.2608 101 50 101C36.7392 101 24.0215 95.7322 14.6447 86.3553C5.26785 76.9785 2.00233e-06 64.2608 0 51L50 51H100Z" fill="white" stroke="black" stroke-width="6" mask="url(#path-1-inside-1_1_23)"/>
<mask id="path-2-inside-2_1_23" fill="white">
<path d="M100 54C100 40.7392 94.7322 28.0215 85.3553 18.6447C75.9785 9.26784 63.2608 4 50 4C36.7392 4 24.0215 9.26784 14.6447 18.6447C5.26785 28.0215 2.00233e-06 40.7392 0 54L50 54H100Z"/>
</mask>
<path d="M100 54C100 40.7392 94.7322 28.0215 85.3553 18.6447C75.9785 9.26784 63.2608 4 50 4C36.7392 4 24.0215 9.26784 14.6447 18.6447C5.26785 28.0215 2.00233e-06 40.7392 0 54L50 54H100Z" fill="white" stroke="black" stroke-width="6" mask="url(#path-2-inside-2_1_23)"/>
<mask id="path-3-inside-3_1_23" fill="white">
<path d="M266 50C266 63.2608 260.732 75.9785 251.355 85.3553C241.979 94.7322 229.261 100 216 100C202.739 100 190.021 94.7322 180.645 85.3553C171.268 75.9785 166 63.2608 166 50L216 50H266Z"/>
</mask>
<path d="M266 50C266 63.2608 260.732 75.9785 251.355 85.3553C241.979 94.7322 229.261 100 216 100C202.739 100 190.021 94.7322 180.645 85.3553C171.268 75.9785 166 63.2608 166 50L216 50H266Z" fill="white" stroke="black" stroke-width="6" mask="url(#path-3-inside-3_1_23)"/>
<mask id="path-4-inside-4_1_23" fill="white">
<path d="M266 53C266 39.7392 260.732 27.0215 251.355 17.6447C241.979 8.26784 229.261 3 216 3C202.739 3 190.021 8.26784 180.645 17.6447C171.268 27.0215 166 39.7392 166 53L216 53H266Z"/>
</mask>
<path d="M266 53C266 39.7392 260.732 27.0215 251.355 17.6447C241.979 8.26784 229.261 3 216 3C202.739 3 190.021 8.26784 180.645 17.6447C171.268 27.0215 166 39.7392 166 53L216 53H266Z" fill="white" stroke="black" stroke-width="6" mask="url(#path-4-inside-4_1_23)"/>
</svg>
